<svg xmlns="http://www.w3.org/2000/svg" xmlns:xlink="http://www.w3.org/1999/xlink" width="1024" zoomAndPan="magnify" viewBox="0 0 768 187.499995" height="250" preserveAspectRatio="xMidYMid meet" version="1.0"><defs><g/><clipPath id="a4352cd834"><path d="M 1.019531 0 L 766.976562 0 L 766.976562 187 L 1.019531 187 Z M 1.019531 0 " clip-rule="nonzero"/></clipPath></defs><g clip-path="url(#a4352cd834)"><path fill="#ffffff" d="M 1.019531 0 L 766.980469 0 L 766.980469 187 L 1.019531 187 Z M 1.019531 0 " fill-opacity="1" fill-rule="nonzero"/><path fill="#ffffff" d="M 1.019531 0 L 766.980469 0 L 766.980469 187 L 1.019531 187 Z M 1.019531 0 " fill-opacity="1" fill-rule="nonzero"/></g><g fill="#000000" fill-opacity="1"><g transform="translate(348.329482, 100.606708)"><g><path d="M 10.1875 -3.953125 C 10.1875 -2.671875 9.722656 -1.660156 8.796875 -0.921875 C 7.878906 -0.179688 6.597656 0.1875 4.953125 0.1875 C 3.429688 0.1875 2.085938 -0.09375 0.921875 -0.65625 L 0.921875 -3.46875 C 1.878906 -3.039062 2.691406 -2.738281 3.359375 -2.5625 C 4.023438 -2.382812 4.628906 -2.296875 5.171875 -2.296875 C 5.835938 -2.296875 6.347656 -2.421875 6.703125 -2.671875 C 7.054688 -2.929688 7.234375 -3.3125 7.234375 -3.8125 C 7.234375 -4.082031 7.15625 -4.328125 7 -4.546875 C 6.84375 -4.765625 6.613281 -4.972656 6.3125 -5.171875 C 6.007812 -5.378906 5.394531 -5.703125 4.46875 -6.140625 C 3.59375 -6.546875 2.9375 -6.9375 2.5 -7.3125 C 2.070312 -7.695312 1.726562 -8.140625 1.46875 -8.640625 C 1.207031 -9.140625 1.078125 -9.722656 1.078125 -10.390625 C 1.078125 -11.648438 1.503906 -12.640625 2.359375 -13.359375 C 3.210938 -14.078125 4.394531 -14.4375 5.90625 -14.4375 C 6.644531 -14.4375 7.347656 -14.347656 8.015625 -14.171875 C 8.691406 -13.992188 9.394531 -13.75 10.125 -13.4375 L 9.15625 -11.09375 C 8.394531 -11.40625 7.765625 -11.617188 7.265625 -11.734375 C 6.765625 -11.859375 6.273438 -11.921875 5.796875 -11.921875 C 5.234375 -11.921875 4.796875 -11.785156 4.484375 -11.515625 C 4.179688 -11.253906 4.03125 -10.910156 4.03125 -10.484375 C 4.03125 -10.210938 4.09375 -9.976562 4.21875 -9.78125 C 4.34375 -9.582031 4.535156 -9.390625 4.796875 -9.203125 C 5.066406 -9.023438 5.707031 -8.695312 6.71875 -8.21875 C 8.050781 -7.582031 8.960938 -6.941406 9.453125 -6.296875 C 9.941406 -5.660156 10.1875 -4.878906 10.1875 -3.953125 Z M 10.1875 -3.953125 "/></g></g></g><g fill="#000000" fill-opacity="1"><g transform="translate(359.311518, 100.606708)"><g><path d="M 1.796875 0 L 1.796875 -14.234375 L 4.8125 -14.234375 L 4.8125 -2.5 L 10.578125 -2.5 L 10.578125 0 Z M 1.796875 0 "/></g></g></g><g fill="#000000" fill-opacity="1"><g transform="translate(370.575893, 100.606708)"><g><path d="M 1.796875 0 L 1.796875 -14.234375 L 4.8125 -14.234375 L 4.8125 0 Z M 1.796875 0 "/></g></g></g><g fill="#000000" fill-opacity="1"><g transform="translate(377.176798, 100.606708)"><g><path d="M 13.59375 -7.25 C 13.59375 -4.90625 12.925781 -3.109375 11.59375 -1.859375 C 10.257812 -0.617188 8.335938 0 5.828125 0 L 1.796875 0 L 1.796875 -14.234375 L 6.265625 -14.234375 C 8.585938 -14.234375 10.390625 -13.617188 11.671875 -12.390625 C 12.953125 -11.160156 13.59375 -9.445312 13.59375 -7.25 Z M 10.46875 -7.171875 C 10.46875 -10.234375 9.117188 -11.765625 6.421875 -11.765625 L 4.8125 -11.765625 L 4.8125 -2.5 L 6.109375 -2.5 C 9.015625 -2.5 10.46875 -4.054688 10.46875 -7.171875 Z M 10.46875 -7.171875 "/></g></g></g><g fill="#000000" fill-opacity="1"><g transform="translate(391.936343, 100.606708)"><g><path d="M 9.984375 0 L 1.796875 0 L 1.796875 -14.234375 L 9.984375 -14.234375 L 9.984375 -11.765625 L 4.8125 -11.765625 L 4.8125 -8.640625 L 9.625 -8.640625 L 9.625 -6.15625 L 4.8125 -6.15625 L 4.8125 -2.5 L 9.984375 -2.5 Z M 9.984375 0 "/></g></g></g><g fill="#000000" fill-opacity="1"><g transform="translate(403.103359, 100.606708)"><g/></g></g><g fill="#000000" fill-opacity="1"><g transform="translate(408.28283, 100.606708)"><g><path d="M 10.1875 -11.046875 C 10.1875 -10.160156 9.914062 -9.40625 9.375 -8.78125 C 8.84375 -8.15625 8.085938 -7.726562 7.109375 -7.5 L 7.109375 -7.4375 C 8.265625 -7.289062 9.132812 -6.941406 9.71875 -6.390625 C 10.3125 -5.835938 10.609375 -5.085938 10.609375 -4.140625 C 10.609375 -2.773438 10.109375 -1.710938 9.109375 -0.953125 C 8.117188 -0.191406 6.707031 0.1875 4.875 0.1875 C 3.320312 0.1875 1.953125 -0.0664062 0.765625 -0.578125 L 0.765625 -3.140625 C 1.316406 -2.859375 1.921875 -2.628906 2.578125 -2.453125 C 3.242188 -2.273438 3.898438 -2.1875 4.546875 -2.1875 C 5.535156 -2.1875 6.265625 -2.351562 6.734375 -2.6875 C 7.210938 -3.03125 7.453125 -3.578125 7.453125 -4.328125 C 7.453125 -4.992188 7.179688 -5.460938 6.640625 -5.734375 C 6.097656 -6.015625 5.226562 -6.15625 4.03125 -6.15625 L 2.953125 -6.15625 L 2.953125 -8.46875 L 4.046875 -8.46875 C 5.148438 -8.46875 5.957031 -8.613281 6.46875 -8.90625 C 6.976562 -9.195312 7.234375 -9.691406 7.234375 -10.390625 C 7.234375 -11.460938 6.554688 -12 5.203125 -12 C 4.734375 -12 4.257812 -11.921875 3.78125 -11.765625 C 3.300781 -11.609375 2.765625 -11.34375 2.171875 -10.96875 L 0.78125 -13.03125 C 2.070312 -13.96875 3.617188 -14.4375 5.421875 -14.4375 C 6.890625 -14.4375 8.050781 -14.132812 8.90625 -13.53125 C 9.757812 -12.9375 10.1875 -12.109375 10.1875 -11.046875 Z M 10.1875 -11.046875 "/></g></g></g></svg>